<svg width="24" height="24" viewBox="0 0 24 24" fill="none" xmlns="http://www.w3.org/2000/svg">
<path d="M8 8L8 6.5C8 4.567 9.567 3 11.5 3V3C13.433 3 15 4.567 15 6.5L15 8" stroke="#101820" stroke-linecap="round"/>
<path d="M4 12C4 10.1144 4 9.17157 4.58579 8.58579C5.17157 8 6.11438 8 8 8H15C16.8856 8 17.8284 8 18.4142 8.58579C19 9.17157 19 10.1144 19 12V12.5C19 15.7875 19 17.4312 18.092 18.5376C17.9258 18.7401 17.7401 18.9258 17.5376 19.092C16.4312 20 14.7875 20 11.5 20V20C8.21252 20 6.56878 20 5.46243 19.092C5.25989 18.9258 5.07418 18.7401 4.90796 18.5376C4 17.4312 4 15.7875 4 12.5V12Z" stroke="#101820"/>
</svg>
