<svg width="57" height="57" viewBox="0 0 57 57" fill="none" xmlns="http://www.w3.org/2000/svg">
<path d="M28.3557 0.622583C12.902 0.622583 0.332031 13.1927 0.332031 28.6463C0.332031 36.4034 3.5938 43.8489 9.29962 49.1526V56.6695H28.3557C43.8095 56.6695 56.3795 44.0994 56.3795 28.6458C56.3795 13.1922 43.8093 0.62207 28.3557 0.62207V0.622583ZM28.3557 54.4281H11.5415V48.1573L11.1692 47.8256C5.70602 42.9249 2.5739 35.9345 2.5739 28.6464C2.5739 14.4303 14.1397 2.86463 28.3557 2.86463C42.5718 2.86463 54.1375 14.4304 54.1375 28.6464C54.1375 42.8625 42.5718 54.4283 28.3557 54.4283L28.3557 54.4281Z" fill="#101820"/>
<path d="M25.9646 36.4599L19.0953 29.5906L21.7811 26.9069L16.4971 16.334L10.3789 22.4567L10.9934 23.0712C11.4598 24.3333 13.7958 30.0996 19.6268 35.9282C25.4578 41.7616 31.2285 44.1001 32.4889 44.5639L33.1034 45.176L39.2216 39.0577L28.6532 33.7738L25.9646 36.4599Z" fill="white"/>
<path d="M27.0207 35.9057L27.7982 36.6832L28.576 35.9061L30.704 33.78L39.1984 38.027L31.8917 45.3327C29.7791 44.4899 24.0933 41.9359 19.1079 36.9481L19.1076 36.9478C14.1237 31.9657 11.6095 26.246 10.7727 24.1189L18.0296 16.8594L22.2765 25.3573L20.1517 27.4805L19.3733 28.2583L20.1514 29.0364L27.0207 35.9057Z" stroke="#101820" stroke-width="2.2"/>
<path d="M36.2021 28.6462H38.444C38.444 23.0839 33.9177 18.5576 28.3555 18.5576V20.7995C32.6821 20.7995 36.2021 24.3195 36.2021 28.6462Z" fill="#101820"/>
<path d="M28.3555 9.58984V11.8317C37.6278 11.8317 45.1697 19.3736 45.1697 28.646H47.4116C47.4116 18.1381 38.8633 9.58984 28.3555 9.58984Z" fill="#101820"/>
</svg>
