<svg width="70" height="70" viewBox="0 0 70 70" fill="none" xmlns="http://www.w3.org/2000/svg">
<path fill-rule="evenodd" clip-rule="evenodd" d="M35.6405 18.9189L33.4007 18.9287L14.188 29.5731L14.1875 30.171V51.0316L15.3175 52.9224L34.5804 63.3784L53.7287 52.9244L54.8632 51.0287V30.1681L54.8607 29.6047L35.6405 18.9189ZM51.4661 30.1709L34.5248 20.8233L17.5836 30.1709L34.5248 39.5289L51.4661 30.1709ZM33.4015 41.4157L16.4269 32.0446V51.0233L33.4015 60.3944V41.4157ZM52.6253 51.0208V32.0446L35.6418 41.4221V60.3983L52.6253 51.0208Z" fill="#101820"/>
<path d="M34.5276 19.865L34.5276 7.56767M28.3789 10.4055L34.5276 5.67578L40.6762 10.4055" stroke="#101820" stroke-width="2.3" stroke-linecap="square"/>
<path d="M15.5341 51.6578L4.71953 57.9016M10.0969 61.4521L3.05576 58.8622L4.33345 51.4694" stroke="#101820" stroke-width="2.3" stroke-linecap="square"/>
<path d="M53.6946 51.8094L64.5092 58.0532M64.8953 51.621L66.1729 59.0138L59.1318 61.6037" stroke="#101820" stroke-width="2.3" stroke-linecap="square"/>
</svg>
