<svg width="44" height="58" viewBox="0 0 44 58" fill="none" xmlns="http://www.w3.org/2000/svg">
<path d="M43.4342 29.9544L41.1911 22.9849L43.4342 16.0105L37.5198 11.685L35.2332 4.72748L27.91 4.6932L21.9668 0.419922L16.0236 4.69584L8.70038 4.73012L6.41385 11.685L0.5 16.0072L2.74306 22.9815L0.5 29.951L6.41385 34.2781L8.3641 40.2067L3.93954 49.9482L10.68 50.9625L15.3216 57.3568L21.9668 50.7094L28.6974 57.4427L32.6659 50.9679L40.0914 49.9634L35.3693 40.8167L37.5171 34.2787L43.4342 29.9544ZM31.194 48.7032L28.237 53.5298L21.9667 47.2628L15.6137 53.618L12.0523 48.7081L7.49331 48.023L10.5722 41.2434L16.0256 41.2679L21.9667 45.5466L27.9099 41.2658L32.8535 41.2462L36.3443 48.0062L31.194 48.7032ZM33.6389 38.2816L32.6148 38.8106L27.12 38.8351L21.9669 42.5429L16.8158 38.8351L10.7142 38.8106L10.4242 38.6767L8.48591 32.7769L3.3594 29.0249L5.30477 22.9815L3.3594 16.936L8.48591 13.189L10.4678 7.15553L16.8158 7.12615L21.9669 3.42374L27.1179 7.12949L33.4659 7.15887L35.4478 13.1924L40.5743 16.9394L38.6289 22.9849L40.5743 29.0283L35.4478 32.7753L33.6389 38.2816Z" fill="#101820"/>
<path d="M21.9623 12.0156C15.9141 12.0156 10.9922 16.9353 10.9922 22.9858C10.9922 29.0313 15.9141 33.9559 21.9623 33.9559C28.0106 33.9559 32.9325 29.0313 32.9325 22.9858C32.9325 16.9326 28.0106 12.0156 21.9623 12.0156ZM21.9623 31.5181C17.2576 31.5181 13.43 27.6905 13.43 22.9858C13.43 18.2811 17.2576 14.4534 21.9623 14.4534C26.667 14.4534 30.4947 18.2811 30.4947 22.9858C30.4947 27.691 26.667 31.5181 21.9623 31.5181Z" fill="#101820"/>
</svg>
