<svg width="48" height="58" viewBox="0 0 48 58" fill="none" xmlns="http://www.w3.org/2000/svg">
<path d="M21.3378 34.2662L17.5152 30.4436L15.7891 32.1669L21.7177 38.096L32.2933 22.2307L30.2648 20.8779L21.3378 34.2662Z" fill="#101820"/>
<path d="M45.9042 10.5852C43.3299 10.5852 34.934 9.97087 34.934 2.05289V0.833984H12.9937V2.05289C12.9937 9.9709 4.59792 10.5852 2.02359 10.5852H0.804688V36.1822C0.804688 46.2774 22.5305 56.3701 23.4568 56.7936L23.964 57.0254L24.4711 56.7914C25.3951 56.367 47.1233 46.2746 47.1233 36.1801V10.5831H45.9044L45.9042 10.5852ZM44.6853 36.1822C44.6853 43.0712 30.1922 51.3886 23.9639 54.3418C17.7355 51.3947 3.2425 43.0768 3.2425 36.1822V12.9938C10.305 12.6232 14.8199 8.998 15.3728 3.27193H32.5545C33.11 9.00079 37.6227 12.6232 44.6847 12.9938L44.6853 36.1822Z" fill="#101820"/>
</svg>
