<svg width="58" height="48" viewBox="0 0 58 48" fill="none" xmlns="http://www.w3.org/2000/svg">
<path d="M44.5466 12.6091L25.0441 36.9872L23.1406 35.4641L42.6431 11.0859L44.5466 12.6091Z" fill="#101820"/>
<path d="M25.3131 22.8177C28.0018 22.8177 30.1887 20.6307 30.1887 17.942C30.1887 15.2533 28.0018 13.0664 25.3131 13.0664C22.6244 13.0664 20.4375 15.2533 20.4375 17.942C20.4375 20.6307 22.6244 22.8177 25.3131 22.8177ZM25.3131 15.5042C26.6561 15.5042 27.7509 16.5963 27.7509 17.942C27.7509 19.2877 26.6561 20.3798 25.3131 20.3798C23.9702 20.3798 22.8753 19.2877 22.8753 17.942C22.8753 16.5963 23.9702 15.5042 25.3131 15.5042Z" fill="#101820"/>
<path d="M37.5 30.1305C37.5 32.8192 39.6869 35.0061 42.3756 35.0061C45.0643 35.0061 47.2512 32.8192 47.2512 30.1305C47.2512 27.4418 45.0643 25.2549 42.3756 25.2549C39.6869 25.2549 37.5 27.4418 37.5 30.1305ZM44.8134 30.1305C44.8134 31.4762 43.7186 32.5683 42.3756 32.5683C41.0327 32.5683 39.9378 31.4762 39.9378 30.1305C39.9378 28.7848 41.0327 27.6927 42.3756 27.6927C43.7186 27.6927 44.8134 28.7848 44.8134 30.1305Z" fill="#101820"/>
<path d="M0.933594 0.876214V20.5347L1.54087 20.8884C2.68632 21.5561 3.37146 22.7336 3.37146 24.0353C3.37146 25.3369 2.68637 26.5145 1.54087 27.1827L0.933594 27.5359V47.1944H57.0032V0.875977L0.933594 0.876214ZM54.5654 44.7568H13.1226V36.2245H10.6848V44.7568H3.3714V28.8846C4.89009 27.7386 5.80922 25.9396 5.80922 24.0356C5.80922 22.1316 4.89013 20.3298 3.3714 19.1865V3.3143H10.6848V11.8466H13.1226V3.3143H54.5654V44.7568Z" fill="#101820"/>
</svg>
