<svg width="24" height="24" viewBox="0 0 24 24" fill="none" xmlns="http://www.w3.org/2000/svg">
<path d="M5.17008 12.6482L11.4677 18.505C11.6478 18.6725 11.7379 18.7563 11.8393 18.7907C11.9435 18.826 12.0565 18.826 12.1607 18.7907C12.2621 18.7563 12.3522 18.6725 12.5323 18.505L12.5323 18.505L18.8299 12.6482C20.6224 10.9812 20.8395 8.21923 19.3296 6.29262L19.0731 5.96523C17.2789 3.67583 13.7055 4.06236 12.4423 6.68247C12.2638 7.05288 11.7362 7.05288 11.5577 6.68247C10.2945 4.06236 6.72114 3.67583 4.92694 5.96522L4.67036 6.29262C3.16047 8.21923 3.37764 10.9812 5.17008 12.6482Z" stroke="#101820"/>
</svg>
